<svg width="13" height="12" viewBox="0 0 13 12" fill="none" xmlns="http://www.w3.org/2000/svg">
<path d="M0 1.39394C0 0.989891 0.146401 0.656558 0.439189 0.393939C0.731978 0.131309 1.11262 0 1.58108 0C2.04119 0 2.41344 0.129285 2.69788 0.387879C2.99066 0.654545 3.13707 1.00201 3.13707 1.4303C3.13707 1.81818 2.99486 2.14141 2.71042 2.4C2.41764 2.66667 2.03282 2.8 1.55598 2.8H1.54344C1.08333 2.8 0.711072 2.66667 0.426641 2.4C0.142209 2.13333 0 1.79798 0 1.39394ZM0.163127 12V3.90303H2.94884V12H0.163127ZM4.49228 12H7.27799V7.47879C7.27799 7.19595 7.31146 6.97777 7.37838 6.82424C7.49549 6.54949 7.67326 6.31716 7.91168 6.12727C8.1501 5.93737 8.44916 5.84242 8.80888 5.84242C9.74582 5.84242 10.2143 6.45252 10.2143 7.67273V12H13V7.35758C13 6.16161 12.7072 5.25455 12.1216 4.63636C11.536 4.01818 10.7622 3.70909 9.80019 3.70909C8.72104 3.70909 7.88031 4.15758 7.27799 5.05455V5.07879H7.26544L7.27799 5.05455V3.90303H4.49228C4.509 4.16161 4.51737 4.96565 4.51737 6.31515C4.51737 7.66464 4.509 9.55959 4.49228 12Z" fill="#2E80CE"/>
</svg>
