<svg width="22" height="24" viewBox="0 0 22 24" fill="none" xmlns="http://www.w3.org/2000/svg">
<path d="M20.3598 2.63964C17.9506 -0.556131 14.2772 -0.568132 11.2481 1.10682C11.001 1.24657 10.7219 1.31411 10.4406 1.30222C10.1592 1.29033 9.88633 1.19945 9.65105 1.03931C8.49552 0.245717 7.29036 -0.316477 5.13904 0.207462C0.623408 1.3071 0 4.90379 0 8.99816C0.0797353 12.1602 0.500857 15.3032 1.25551 18.3683C2.11836 22.0168 3.90382 24 5.43354 24C6.96326 24 7.00963 22.2204 7.00963 20.8016C7.00963 19.2009 7.39505 14.8009 10.8642 14.8009C13.5317 14.8009 14.3333 18.4013 14.3333 20.8016C14.3329 23.095 15.1722 24 16.6628 24C19.5267 24 20.9796 15.3938 21.3719 13.1237C21.7642 10.8535 22.9882 6.12569 20.3598 2.63964Z" fill="white"/>
</svg>
