<svg width="16" height="12" viewBox="0 0 16 12" fill="none" xmlns="http://www.w3.org/2000/svg">
<path d="M16 1.42062C15.405 1.66154 14.771 1.82123 14.11 1.89877C14.79 1.524 15.309 0.935077 15.553 0.225231C14.919 0.574154 14.219 0.820615 13.473 0.958154C12.871 0.366462 12.013 0 11.077 0C9.261 0 7.799 1.36062 7.799 3.02862C7.799 3.26862 7.821 3.49938 7.875 3.71908C5.148 3.59631 2.735 2.38985 1.114 0.552C0.831 1.00523 0.665 1.524 0.665 2.08246C0.665 3.13108 1.25 4.06062 2.122 4.59877C1.595 4.58954 1.078 4.44831 0.64 4.22585C0.64 4.23508 0.64 4.24708 0.64 4.25908C0.64 5.73046 1.777 6.95262 3.268 7.23415C3.001 7.30154 2.71 7.33385 2.408 7.33385C2.198 7.33385 1.986 7.32277 1.787 7.28215C2.212 8.48123 3.418 9.36277 4.852 9.39138C3.736 10.1972 2.319 10.6828 0.785 10.6828C0.516 10.6828 0.258 10.6717 0 10.6412C1.453 11.5062 3.175 12 5.032 12C11.068 12 14.368 7.38462 14.368 3.384C14.368 3.25015 14.363 3.12092 14.356 2.99262C15.007 2.56615 15.554 2.03354 16 1.42062Z" fill="#2E80CE"/>
</svg>
